<svg width="24" height="24" viewBox="0 0 24 24" fill="none" xmlns="http://www.w3.org/2000/svg">
<path d="M7.99397 10.7342C8.04597 11.2653 7.75247 11.7259 7.34247 11.7577C6.93247 11.7891 6.55747 11.3845 6.50597 10.8535C6.45397 10.3219 6.74747 9.86182 7.15747 9.82996C7.56747 9.79472 7.94247 10.1988 7.99397 10.7342ZM10.3425 16.5851C10.7525 16.5537 11.046 16.0936 10.994 15.5621C10.9425 15.0267 10.567 14.6226 10.1575 14.6583C9.74747 14.6897 9.45397 15.1498 9.50597 15.6813C9.55747 16.2124 9.93297 16.6169 10.3425 16.5851ZM16.843 9.82996C17.253 9.86134 17.546 10.3214 17.494 10.853C17.4425 11.3884 17.067 11.7925 16.657 11.7572C16.247 11.7254 15.954 11.2653 16.006 10.7337C16.0575 10.2027 16.433 9.7981 16.843 9.82996ZM15.994 13.2669C16.046 12.7358 15.7525 12.2753 15.343 12.2434C14.933 12.212 14.558 12.6166 14.506 13.1477C14.454 13.6792 14.7475 14.1393 15.157 14.1712C15.567 14.2064 15.942 13.8023 15.994 13.2669ZM13.843 14.6578C14.253 14.6892 14.546 15.1493 14.494 15.6808C14.4425 16.2162 14.067 16.6203 13.657 16.5846C13.247 16.5532 12.954 16.0931 13.006 15.5616C13.0575 15.0305 13.433 14.6259 13.843 14.6578Z" fill="black"/>
<path d="M10.9415 5.21785L6.247 7.17457C6.1375 7.22189 6.039 7.28562 5.952 7.36286C5.68012 7.42713 5.43849 7.57771 5.26585 7.79045C5.09322 8.00319 4.99959 8.26576 5 8.53603V15.3771C5.00004 15.6584 5.08493 15.9337 5.24431 16.1692C5.4037 16.4047 5.63067 16.5903 5.8975 16.7033L10.748 18.7566C10.8965 18.8193 11.048 18.8522 11.198 18.858C11.7148 19.0479 12.2857 19.0479 12.8025 18.858C12.9515 18.8522 13.1035 18.8193 13.252 18.7566L18.102 16.7033C18.369 16.5903 18.5961 16.4047 18.7556 16.1691C18.9151 15.9335 19 15.6581 19 15.3766V8.53554C19.0005 8.27576 18.914 8.02278 18.7534 7.81433C18.5928 7.60588 18.3668 7.45311 18.109 7.37879C18.0213 7.29311 17.9179 7.22387 17.804 7.17457L13.059 5.21785C12.7258 5.07423 12.3651 5 12.0003 5C11.6354 5 11.2747 5.07423 10.9415 5.21785V5.21785ZM11.5 11.1846V17.652C11.4999 17.692 11.4895 17.7314 11.4697 17.7666C11.4499 17.8017 11.4214 17.8316 11.3867 17.8535C11.352 17.8754 11.3121 17.8886 11.2708 17.8919C11.2295 17.8952 11.188 17.8886 11.15 17.8726L6.2985 15.8193C6.20958 15.7815 6.13399 15.7195 6.08098 15.6409C6.02796 15.5623 5.99983 15.4704 6 15.3766V8.53554C6.00005 8.49522 6.01056 8.45555 6.03058 8.42015C6.05059 8.38476 6.07947 8.35477 6.11457 8.33293C6.14968 8.31108 6.18989 8.29807 6.23154 8.2951C6.27319 8.29212 6.31495 8.29926 6.353 8.31588L10.9115 10.304C11.087 10.3805 11.2359 10.5043 11.3402 10.6605C11.4446 10.8167 11.5001 10.9987 11.5 11.1846ZM12.5 17.652V11.1836C12.5 10.9978 12.5555 10.8159 12.6599 10.6598C12.7643 10.5037 12.9131 10.38 13.0885 10.3035L17.647 8.31539C17.6851 8.29876 17.7269 8.29162 17.7686 8.29462C17.8103 8.29762 17.8505 8.31067 17.8856 8.33257C17.9208 8.35447 17.9496 8.38453 17.9696 8.41999C17.9896 8.45545 18 8.49518 18 8.53554V15.3766C17.9999 15.4703 17.9716 15.562 17.9185 15.6404C17.8654 15.7189 17.7899 15.7807 17.701 15.8183L12.85 17.8721C12.812 17.8882 12.7704 17.895 12.729 17.8917C12.6876 17.8884 12.6478 17.8752 12.613 17.8533C12.5782 17.8314 12.5496 17.8015 12.5298 17.7663C12.51 17.731 12.4996 17.6916 12.4995 17.6515L12.5 17.652ZM12 7.65543C11.1715 7.65543 10.5 7.43914 10.5 7.17264C10.5 6.90615 11.1715 6.68986 12 6.68986C12.8285 6.68986 13.5 6.90615 13.5 7.17264C13.5 7.43914 12.8285 7.65543 12 7.65543Z" fill="black"/>
</svg>
