<svg width="24" height="24" viewBox="0 0 24 24" fill="none" xmlns="http://www.w3.org/2000/svg">
<path fill-rule="evenodd" clip-rule="evenodd" d="M14.153 6.02136C13.4854 6.11323 12.7803 6.24623 12 6.41728C11.2193 6.24666 10.5146 6.11279 9.84695 6.02136C10.4653 6.25585 11.0922 6.54721 11.7569 6.86919C11.9056 6.94138 12 7.09537 12 7.26423C12.0001 7.18146 12.0229 7.1004 12.066 7.03047C12.109 6.96055 12.1704 6.90462 12.2431 6.86919C12.9078 6.54721 13.5351 6.25585 14.153 6.02136ZM12 17.4325C12 17.7536 11.6745 17.9649 11.3901 17.8328C9.34163 16.8782 7.61485 16.3637 5.29945 16.7986C5.03 16.8493 4.775 16.6415 4.775 16.3598V6.21298C4.469 6.27641 4.15195 6.34859 3.82173 6.43084C3.72985 6.45382 3.64815 6.50796 3.58979 6.58454C3.53144 6.66111 3.49981 6.75568 3.5 6.85301V18.0257C3.5 18.3026 3.74778 18.5091 4.0117 18.4575C6.65223 17.9391 8.4317 17.9028 10.8636 18.2825C10.9702 18.4984 11.1328 18.6797 11.3334 18.8063C11.534 18.9329 11.7647 19 12 19C12.2353 19 12.466 18.9329 12.6666 18.8063C12.8672 18.6797 13.0298 18.4984 13.1364 18.2825C15.5679 17.9028 17.3482 17.9391 19.9883 18.4575C20.0503 18.4698 20.1142 18.468 20.1754 18.452C20.2367 18.4361 20.2937 18.4064 20.3426 18.3652C20.3914 18.324 20.4309 18.2722 20.4581 18.2135C20.4853 18.1549 20.4996 18.0907 20.5 18.0257V6.85301C20.5002 6.75568 20.4686 6.66111 20.4102 6.58454C20.3518 6.50796 20.2702 6.45382 20.1783 6.43084C19.8619 6.35195 19.5441 6.27932 19.225 6.21298V16.3598C19.225 16.6415 18.97 16.8493 18.7005 16.7986C16.3851 16.3637 14.6584 16.8782 12.6103 17.8328C12.3256 17.9649 12 17.754 12 17.4325Z" fill="black"/>
<path fill-rule="evenodd" clip-rule="evenodd" d="M5.19961 6.10977V16.3603L5.20258 16.3633C5.2054 16.3657 5.20869 16.3674 5.21221 16.3683C5.21574 16.3692 5.21942 16.3693 5.22298 16.3686C7.65823 15.9106 9.47851 16.4622 11.5648 17.4339C11.5659 17.4345 11.567 17.4349 11.5682 17.4352H11.5687C11.5703 17.435 11.5719 17.4344 11.5733 17.4334C11.5738 17.4332 11.5742 17.4329 11.5746 17.4325V7.26471C9.31488 6.16927 7.60426 5.49074 5.19961 6.10977V6.10977ZM4.98031 5.26457C7.69776 4.56067 9.64681 5.36344 11.9376 6.47375C12.0832 6.54443 12.2063 6.65627 12.2926 6.79624C12.3788 6.93621 12.4246 7.09853 12.4246 7.26427V17.433C12.4246 18.0796 11.7735 18.4917 11.2146 18.2318C9.20438 17.2952 7.57068 16.817 5.37513 17.2296C4.85961 17.3258 4.34961 16.9299 4.34961 16.3598V6.10408C4.34961 5.71692 4.59993 5.363 4.98031 5.26413V5.26457Z" fill="black"/>
<path fill-rule="evenodd" clip-rule="evenodd" d="M18.8002 6.10977V16.3603C18.7969 16.3641 18.7926 16.3668 18.7879 16.3682C18.7844 16.369 18.7807 16.369 18.7772 16.3682C16.3411 15.9106 14.5213 16.4622 12.435 17.4343C12.4339 17.4348 12.4327 17.435 12.4316 17.4352H12.4311C12.4295 17.435 12.4279 17.4344 12.4265 17.4334L12.4252 17.4325V7.26427C14.6849 6.16883 16.3955 5.49074 18.8002 6.10977ZM19.0195 5.26457C16.302 4.56067 14.353 5.36344 12.0622 6.47375C11.9166 6.54455 11.7935 6.65648 11.7073 6.79651C11.621 6.93655 11.5752 7.09892 11.5752 7.26471V17.433C11.5752 18.0796 12.2263 18.4917 12.7852 18.2318C14.7954 17.2952 16.4295 16.817 18.6247 17.2296C19.1402 17.3258 19.6502 16.9299 19.6502 16.3598V6.10408C19.6502 5.71692 19.3999 5.363 19.0195 5.26413V5.26457Z" fill="black"/>
<path fill-rule="evenodd" clip-rule="evenodd" d="M15.3996 7.62476C15.5123 7.62476 15.6204 7.67085 15.7001 7.75289C15.7798 7.83493 15.8246 7.94621 15.8246 8.06223V11.562C15.8246 11.6781 15.7798 11.7893 15.7001 11.8714C15.6204 11.9534 15.5123 11.9995 15.3996 11.9995C15.2869 11.9995 15.1788 11.9534 15.0991 11.8714C15.0194 11.7893 14.9746 11.6781 14.9746 11.562V8.06223C14.9746 7.94621 15.0194 7.83493 15.0991 7.75289C15.1788 7.67085 15.2869 7.62476 15.3996 7.62476Z" fill="black"/>
<path fill-rule="evenodd" clip-rule="evenodd" d="M15.6383 9.96087C15.2006 10.079 14.7416 10.2833 14.116 10.6337C14.0173 10.6857 13.9028 10.696 13.7969 10.6624C13.6909 10.6287 13.602 10.5538 13.549 10.4535C13.4959 10.3533 13.4831 10.2357 13.5131 10.1259C13.5431 10.016 13.6137 9.92257 13.7097 9.8655C14.3629 9.49933 14.8903 9.25828 15.4224 9.11435C15.9579 8.96998 16.4773 8.9293 17.1063 8.93848C17.219 8.94011 17.3265 8.98776 17.4051 9.07095C17.4837 9.15414 17.5269 9.26606 17.5253 9.38208C17.5238 9.49811 17.4775 9.60874 17.3967 9.68963C17.3158 9.77053 17.2071 9.81506 17.0944 9.81344C16.5092 9.80469 16.0735 9.84318 15.6383 9.96087ZM6.69209 13.5307C7.93139 13.5184 8.61947 13.6387 9.93569 14.158L10.24 13.3408C8.82899 12.7843 8.03509 12.6422 6.68359 12.6557L6.69209 13.5307V13.5307ZM6.69209 11.3433C7.93139 11.331 8.61947 11.4513 9.93569 11.9706L10.24 11.1534C8.82899 10.597 8.03509 10.4548 6.68359 10.4683L6.69209 11.3433V11.3433ZM6.69209 9.15591C7.93139 9.14366 8.61947 9.26397 9.93569 9.78325L10.24 8.96604C8.82899 8.40957 8.03509 8.26739 6.68359 8.28096L6.69209 9.15591Z" fill="black"/>
</svg>
