<svg width="24" height="24" viewBox="0 0 24 24" fill="none" xmlns="http://www.w3.org/2000/svg">
<path d="M7.66 11.51L5 19L12.49 16.347M6.4 5.7H6.407M19 9.2H19.007M14.1 5H14.107M19 17.6H19.007M19 5L17.432 5.525C16.9857 5.67367 16.6048 5.97275 16.3546 6.37111C16.1043 6.76947 16.0002 7.24237 16.06 7.709V7.709C16.13 8.311 15.661 8.85 15.045 8.85H14.779C14.177 8.85 13.659 9.27 13.547 9.858L13.4 10.6M19 12.7L18.426 12.469C17.824 12.231 17.152 12.609 17.04 13.246C16.963 13.736 16.536 14.1 16.039 14.1H15.5M11.3 5L11.531 5.574C11.769 6.176 11.391 6.848 10.754 6.96C10.264 7.03 9.9 7.464 9.9 7.961V8.5" stroke="black" stroke-width="1.2" stroke-linecap="round" stroke-linejoin="round"/>
<path d="M11.2994 12.7C12.6504 14.051 13.2804 15.619 12.6994 16.2C12.1184 16.781 10.5504 16.151 9.19938 14.8C7.84838 13.449 7.21838 11.881 7.79938 11.3C8.38038 10.719 9.94838 11.349 11.2994 12.7Z" stroke="black" stroke-width="1.2" stroke-linecap="round" stroke-linejoin="round"/>
</svg>
