<svg width="24" height="24" viewBox="0 0 24 24" fill="none" xmlns="http://www.w3.org/2000/svg">
<path d="M14.3727 7.6692L12.1403 9.12036C11.9923 9.21657 11.8121 9.25005 11.6394 9.21343C11.4667 9.1768 11.3157 9.07307 11.2194 8.92506C11.1232 8.77704 11.0897 8.59687 11.1264 8.42417C11.163 8.25147 11.2667 8.10039 11.4147 8.00417L13.6471 6.55302C13.7951 6.4568 13.9753 6.42332 14.148 6.45995C14.3207 6.49657 14.4718 6.6003 14.568 6.74832C14.6642 6.89633 14.6977 7.07651 14.6611 7.24921C14.6244 7.4219 14.5207 7.57298 14.3727 7.6692ZM8.06619 10.1809L7.5081 10.5437L7.14531 9.98561C7.0491 9.8376 6.89802 9.73387 6.72532 9.69724C6.55262 9.66061 6.37245 9.69409 6.22443 9.79031C6.07642 9.88653 5.97269 10.0376 5.93606 10.2103C5.89943 10.383 5.93291 10.5632 6.02913 10.7112L6.39192 11.2693L5.83383 11.6321C5.68581 11.7283 5.58208 11.8794 5.54546 12.0521C5.50883 12.2248 5.54231 12.4049 5.63853 12.553C5.73475 12.701 5.88582 12.8047 6.05852 12.8413C6.23122 12.8779 6.41139 12.8445 6.55941 12.7483L7.1175 12.3855L7.48029 12.9436C7.57651 13.0916 7.72758 13.1953 7.90028 13.2319C8.07298 13.2686 8.25316 13.2351 8.40117 13.1389C8.54919 13.0426 8.65292 12.8916 8.68954 12.7189C8.72617 12.5462 8.69269 12.366 8.59647 12.218L8.23368 11.6599L8.79177 11.2971C8.93979 11.2009 9.04352 11.0498 9.08014 10.8771C9.11677 10.7044 9.08329 10.5242 8.98707 10.3762C8.89086 10.2282 8.73978 10.1245 8.56708 10.0878C8.39438 10.0512 8.21421 10.0847 8.06619 10.1809ZM21.636 13.6061C21.5091 13.728 21.3711 13.8377 21.2237 13.9337C20.5592 14.3653 19.7509 14.5161 18.9756 14.353L18.918 14.3408L14.0359 13.0288L11.6103 14.6254L10.8117 19.6103L10.8065 19.6634C10.6368 20.4395 10.1689 21.1179 9.50375 21.5522C9.35871 21.6469 9.20473 21.727 9.04402 21.7916C8.68218 21.9465 8.29328 22.0284 7.89967 22.0326C7.50607 22.0367 7.11553 21.963 6.7505 21.8158C6.38546 21.6685 6.05314 21.4505 5.77263 21.1744C5.49211 20.8982 5.26894 20.5694 5.11595 20.2067L2.4483 13.6145L2.43923 13.6006C1.97795 12.5204 1.91297 11.312 2.25576 10.1886C2.59855 9.06519 3.32708 8.09893 4.31283 7.4603L10.4382 3.44868C11.4188 2.81213 12.5917 2.53991 13.7524 2.67946C14.9131 2.81902 15.9881 3.3615 16.7898 4.21234C16.8014 4.21478 16.8014 4.21478 16.8059 4.22176L21.7704 9.37044L21.7774 9.3659C22.32 9.94741 22.6098 10.7204 22.5833 11.5153C22.5568 12.3101 22.2161 13.0621 21.636 13.6061V13.6061ZM15.1545 10.7039C15.9686 10.1747 16.5391 9.34375 16.7405 8.39391C16.942 7.44406 16.7579 6.4531 16.2287 5.63902C15.6995 4.82494 14.8685 4.25442 13.9187 4.05298C12.9689 3.85153 11.9779 4.03566 11.1638 4.56486L5.03841 8.57648C4.31914 9.04133 3.78607 9.74414 3.53234 10.5621C3.27862 11.3801 3.32037 12.2612 3.6503 13.0515C3.65922 13.0628 3.66467 13.0765 3.666 13.0909L6.34271 19.697C6.48141 20.0205 6.71911 20.2917 7.02162 20.4716C7.32414 20.6514 7.6759 20.7308 8.02635 20.6982C8.3768 20.6656 8.70788 20.5227 8.97201 20.2901C9.23614 20.0574 9.41971 19.7471 9.49634 19.4035L10.3399 14.1214C10.3565 14.0308 10.391 13.9443 10.4414 13.8672C10.4918 13.7901 10.5572 13.7239 10.6336 13.6725L15.1545 10.7039ZM20.8112 10.2917L18.1545 7.53301C18.1713 8.38205 17.9713 9.22134 17.5733 9.9715C17.1753 10.7217 16.5925 11.3579 15.8801 11.82L15.5243 12.0513L19.2629 13.0547C19.608 13.1241 19.9662 13.0823 20.286 12.9354C20.6058 12.7884 20.8707 12.5438 21.0428 12.2368C21.2149 11.9297 21.2851 11.576 21.2435 11.2266C21.2019 10.8771 21.0506 10.5498 20.8112 10.2917V10.2917Z" fill="black"/>
</svg>
