<svg width="24" height="24" viewBox="0 0 24 24" fill="none" xmlns="http://www.w3.org/2000/svg">
<path d="M8.00039 13.6C8.42474 13.6 8.8317 13.4315 9.13176 13.1314C9.43182 12.8313 9.60039 12.4244 9.60039 12C9.60039 11.5757 9.43182 11.1687 9.13176 10.8687C8.8317 10.5686 8.42474 10.4 8.00039 10.4C7.57604 10.4 7.16908 10.5686 6.86902 10.8687C6.56896 11.1687 6.40039 11.5757 6.40039 12C6.40039 12.4244 6.56896 12.8313 6.86902 13.1314C7.16908 13.4315 7.57604 13.6 8.00039 13.6V13.6ZM16.0004 13.6C16.4247 13.6 16.8317 13.4315 17.1318 13.1314C17.4318 12.8313 17.6004 12.4244 17.6004 12C17.6004 11.5757 17.4318 11.1687 17.1318 10.8687C16.8317 10.5686 16.4247 10.4 16.0004 10.4C15.576 10.4 15.1691 10.5686 14.869 10.8687C14.569 11.1687 14.4004 11.5757 14.4004 12C14.4004 12.4244 14.569 12.8313 14.869 13.1314C15.1691 13.4315 15.576 13.6 16.0004 13.6V13.6ZM12.0004 9.60002C12.4247 9.60002 12.8317 9.43145 13.1318 9.13139C13.4318 8.83134 13.6004 8.42437 13.6004 8.00002C13.6004 7.57568 13.4318 7.16871 13.1318 6.86865C12.8317 6.5686 12.4247 6.40002 12.0004 6.40002C11.576 6.40002 11.1691 6.5686 10.869 6.86865C10.569 7.16871 10.4004 7.57568 10.4004 8.00002C10.4004 8.42437 10.569 8.83134 10.869 9.13139C11.1691 9.43145 11.576 9.60002 12.0004 9.60002ZM12.0004 17.6C12.4247 17.6 12.8317 17.4315 13.1318 17.1314C13.4318 16.8313 13.6004 16.4244 13.6004 16C13.6004 15.5757 13.4318 15.1687 13.1318 14.8687C12.8317 14.5686 12.4247 14.4 12.0004 14.4C11.576 14.4 11.1691 14.5686 10.869 14.8687C10.569 15.1687 10.4004 15.5757 10.4004 16C10.4004 16.4244 10.569 16.8313 10.869 17.1314C11.1691 17.4315 11.576 17.6 12.0004 17.6Z" stroke="black" stroke-width="1.3" stroke-linecap="round" stroke-linejoin="round"/>
<path d="M4 12V20M4 12C4 16.4184 7.5816 20 12 20C16.4184 20 20 16.4184 20 12C20 7.5816 16.4184 4 12 4C7.5816 4 4 7.5816 4 12Z" stroke="black" stroke-width="1.3" stroke-linecap="round" stroke-linejoin="round"/>
</svg>
