<svg width="24" height="24" viewBox="0 0 24 24" fill="none" xmlns="http://www.w3.org/2000/svg">
<path d="M9.5 11.0017C9.69825 11.0017 9.88838 10.923 10.0286 10.7828C10.1687 10.6426 10.2475 10.4525 10.2475 10.2542C10.2475 10.056 10.1687 9.86584 10.0286 9.72566C9.88838 9.58548 9.69825 9.50672 9.5 9.50672C9.30175 9.50672 9.11162 9.58548 8.97144 9.72566C8.83125 9.86584 8.7525 10.056 8.7525 10.2542C8.7525 10.4525 8.83125 10.6426 8.97144 10.7828C9.11162 10.923 9.30175 11.0017 9.5 11.0017ZM13.223 12.2547C13.223 12.453 13.1442 12.6431 13.0041 12.7833C12.8639 12.9235 12.6737 13.0022 12.4755 13.0022C12.2773 13.0022 12.0871 12.9235 11.9469 12.7833C11.8068 12.6431 11.728 12.453 11.728 12.2547C11.728 12.0565 11.8068 11.8663 11.9469 11.7262C12.0871 11.586 12.2773 11.5072 12.4755 11.5072C12.6737 11.5072 12.8639 11.586 13.0041 11.7262C13.1442 11.8663 13.223 12.0565 13.223 12.2547ZM9.504 15.5077C9.70318 15.5077 9.8942 15.4286 10.035 15.2878C10.1759 15.1469 10.255 14.9559 10.255 14.7567C10.255 14.5575 10.1759 14.3665 10.035 14.2257C9.8942 14.0848 9.70318 14.0057 9.504 14.0057C9.30482 14.0057 9.1138 14.0848 8.97296 14.2257C8.83212 14.3665 8.753 14.5575 8.753 14.7567C8.753 14.9559 8.83212 15.1469 8.97296 15.2878C9.1138 15.4286 9.30482 15.5077 9.504 15.5077ZM6 5.95572C6 4.86072 6.895 3.93372 8.03 4.00372C12.477 4.27672 16.377 5.77372 19.432 8.69072C20.299 9.51772 20.128 10.8687 19.229 11.5587C17.83 12.6387 16.4216 13.7064 15.004 14.7617V16.5017C15.004 17.2187 14.449 18.0017 13.504 18.0017C13.3348 18.0021 13.1666 17.9751 13.006 17.9217V18.0047C13.006 18.7177 12.45 19.4957 11.503 19.4957C10.749 19.4957 10.252 18.9987 10.077 18.4457C9.529 18.8557 8.93 19.3017 8.395 19.6997C7.405 20.4367 6 19.7297 6 18.4987V5.95572ZM13.005 16.5017C13.005 16.7607 13.2 17.0017 13.504 17.0017C13.809 17.0017 14.004 16.7597 14.004 16.5017V14.5077C14.0041 14.4289 14.0228 14.3512 14.0586 14.281C14.0944 14.2108 14.1463 14.1501 14.21 14.1037C14.99 13.5377 16.318 12.5287 17.494 11.6297C14.801 9.06572 11.026 7.54472 7 7.51372V18.4987C7.00028 18.5912 7.02622 18.6819 7.07493 18.7605C7.12365 18.8392 7.19323 18.9028 7.27594 18.9442C7.35865 18.9857 7.45124 19.0034 7.54341 18.9953C7.63558 18.9873 7.72371 18.9539 7.798 18.8987C8.584 18.3127 9.511 17.6227 10.207 17.1007C10.2813 17.045 10.3696 17.0111 10.4621 17.0027C10.5546 16.9944 10.6476 17.012 10.7306 17.0535C10.8137 17.095 10.8835 17.1589 10.9323 17.2379C10.9811 17.3168 11.007 17.4079 11.007 17.5007V18.0047C11.007 18.2507 11.197 18.4967 11.503 18.4967C11.5685 18.4983 11.6337 18.4868 11.6947 18.4627C11.7556 18.4387 11.8112 18.4027 11.858 18.3568C11.9048 18.3109 11.9419 18.2561 11.9672 18.1957C11.9924 18.1352 12.0053 18.0703 12.005 18.0047V16.5017C12.005 16.3691 12.0577 16.2419 12.1514 16.1482C12.2452 16.0544 12.3724 16.0017 12.505 16.0017C12.6376 16.0017 12.7648 16.0544 12.8586 16.1482C12.9523 16.2419 13.005 16.3691 13.005 16.5017ZM18.619 10.7667C19.084 10.4097 19.119 9.77372 18.741 9.41272C15.884 6.68572 12.221 5.26272 7.969 5.00072C7.45 4.96872 7 5.39472 7 5.95572V6.51372C11.327 6.54672 15.402 8.20072 18.297 11.0137L18.619 10.7667Z" fill="black"/>
</svg>
