<svg width="24" height="24" viewBox="0 0 24 24" fill="none" xmlns="http://www.w3.org/2000/svg">
<path d="M5.18337 16.2302L7.69583 16.3237C8.07626 16.3343 8.43702 16.6552 8.49199 17.0318L8.87808 19.5162C9.06751 19.9796 9.62449 20.18 10.0635 19.9369L11.0586 19.3691C11.3006 19.2347 11.4872 18.8872 11.4681 18.6081L11.2929 15.9617C11.2739 15.7701 11.3667 15.503 11.4914 15.3627L13.0374 13.6244C13.2652 13.3682 13.5665 13.4177 13.7223 13.7311L15.6264 17.7402C15.9263 18.3675 16.5406 18.4659 16.9962 17.9536L17.696 17.1668C18.0594 16.7581 18.1661 16.0119 17.9215 15.5103L15.7518 10.9481C15.7223 10.8739 15.7127 10.7937 15.7237 10.7154C15.7347 10.6371 15.7661 10.5634 15.8147 10.5016L17.442 8.67179C17.9519 8.09846 18.1248 7.03974 17.8356 6.3128C17.7304 6.05535 17.5127 5.86174 17.2447 5.78727C16.489 5.58487 15.4522 5.88629 14.9423 6.45962L13.315 8.28941C13.2174 8.39919 13.0164 8.44983 12.8789 8.40402L8.10081 6.78718C7.57955 6.59669 6.85087 6.78974 6.48743 7.19839L5.78768 7.9852C5.33203 8.49754 5.50149 9.09612 6.15944 9.32079L10.3635 10.7439C10.692 10.8504 10.7772 11.1555 10.5494 11.4117L9.00339 13.15C8.87863 13.2902 8.62419 13.4135 8.43788 13.4226L5.78916 13.5575C5.50969 13.5711 5.19174 13.7908 5.08116 14.053L4.63339 15.1076C4.43074 15.5609 4.68938 16.0968 5.18337 16.2302Z" stroke="black" stroke-width="1.3" stroke-linecap="round" stroke-linejoin="round"/>
</svg>
