<svg width="200" height="1024" viewBox="0 0 200 1024" fill="none" xmlns="http://www.w3.org/2000/svg">
<mask id="path-1-inside-1_11_828" fill="white">
<path d="M0 0H200V1024H0V0Z"/>
</mask>
<path d="M0 0H200V1024H0V0Z" fill="white"/>
<path d="M199 0V1024H201V0H199Z" fill="#EAEAEA" mask="url(#path-1-inside-1_11_828)"/>
<rect x="10" y="104" width="124" height="40" rx="6" fill="#F7F7F7"/>
<path d="M30.4998 130V127M28.5698 114.82L21.6398 120.37C20.8598 120.99 20.3598 122.3 20.5298 123.28L21.8598 131.24C22.0998 132.66 23.4598 133.81 24.8998 133.81H36.0998C37.5298 133.81 38.8998 132.65 39.1398 131.24L40.4698 123.28C40.6298 122.3 40.1298 120.99 39.3598 120.37L32.4298 114.83C31.3598 113.97 29.6298 113.97 28.5698 114.82V114.82Z" stroke="black" stroke-width="1.5" stroke-linecap="round" stroke-linejoin="round"/>
<path d="M71.368 117.832V129H69.128V124.248H64.344V129H62.104V117.832H64.344V122.424H69.128V117.832H71.368ZM77.2688 129.144C76.4154 129.144 75.6474 128.957 74.9648 128.584C74.2821 128.2 73.7434 127.661 73.3488 126.968C72.9648 126.275 72.7728 125.475 72.7728 124.568C72.7728 123.661 72.9701 122.861 73.3648 122.168C73.7701 121.475 74.3194 120.941 75.0128 120.568C75.7061 120.184 76.4794 119.992 77.3328 119.992C78.1861 119.992 78.9594 120.184 79.6528 120.568C80.3461 120.941 80.8901 121.475 81.2848 122.168C81.6901 122.861 81.8928 123.661 81.8928 124.568C81.8928 125.475 81.6848 126.275 81.2688 126.968C80.8634 127.661 80.3088 128.2 79.6048 128.584C78.9114 128.957 78.1328 129.144 77.2688 129.144ZM77.2688 127.192C77.6741 127.192 78.0528 127.096 78.4048 126.904C78.7674 126.701 79.0554 126.403 79.2688 126.008C79.4821 125.613 79.5888 125.133 79.5888 124.568C79.5888 123.725 79.3648 123.08 78.9168 122.632C78.4794 122.173 77.9408 121.944 77.3008 121.944C76.6608 121.944 76.1221 122.173 75.6848 122.632C75.2581 123.08 75.0448 123.725 75.0448 124.568C75.0448 125.411 75.2528 126.061 75.6688 126.52C76.0954 126.968 76.6288 127.192 77.2688 127.192ZM94.3039 120.008C95.3919 120.008 96.2665 120.344 96.9279 121.016C97.5999 121.677 97.9359 122.605 97.9359 123.8V129H95.6959V124.104C95.6959 123.411 95.5199 122.883 95.1679 122.52C94.8159 122.147 94.3359 121.96 93.7279 121.96C93.1199 121.96 92.6345 122.147 92.2719 122.52C91.9199 122.883 91.7439 123.411 91.7439 124.104V129H89.5039V124.104C89.5039 123.411 89.3279 122.883 88.9759 122.52C88.6239 122.147 88.1439 121.96 87.5359 121.96C86.9172 121.96 86.4265 122.147 86.0639 122.52C85.7119 122.883 85.5359 123.411 85.5359 124.104V129H83.2959V120.136H85.5359V121.208C85.8239 120.835 86.1919 120.541 86.6399 120.328C87.0985 120.115 87.5999 120.008 88.1439 120.008C88.8372 120.008 89.4559 120.157 89.9999 120.456C90.5439 120.744 90.9652 121.16 91.2639 121.704C91.5519 121.192 91.9679 120.781 92.5119 120.472C93.0665 120.163 93.6639 120.008 94.3039 120.008ZM108.061 124.376C108.061 124.696 108.04 124.984 107.997 125.24H101.517C101.571 125.88 101.795 126.381 102.189 126.744C102.584 127.107 103.069 127.288 103.645 127.288C104.477 127.288 105.069 126.931 105.421 126.216H107.837C107.581 127.069 107.091 127.773 106.365 128.328C105.64 128.872 104.749 129.144 103.693 129.144C102.84 129.144 102.072 128.957 101.389 128.584C100.717 128.2 100.189 127.661 99.8055 126.968C99.4322 126.275 99.2455 125.475 99.2455 124.568C99.2455 123.651 99.4322 122.845 99.8055 122.152C100.179 121.459 100.701 120.925 101.373 120.552C102.045 120.179 102.819 119.992 103.693 119.992C104.536 119.992 105.288 120.173 105.949 120.536C106.621 120.899 107.139 121.416 107.501 122.088C107.875 122.749 108.061 123.512 108.061 124.376ZM105.741 123.736C105.731 123.16 105.523 122.701 105.117 122.36C104.712 122.008 104.216 121.832 103.629 121.832C103.075 121.832 102.605 122.003 102.221 122.344C101.848 122.675 101.619 123.139 101.533 123.736H105.741Z" fill="#222222"/>
<rect x="10" y="164" width="41" height="40" rx="8" fill="white"/>
<path d="M31.12 192.81C30.78 192.93 30.22 192.93 29.88 192.81C26.98 191.82 20.5 187.69 20.5 180.69C20.5 177.6 22.99 175.1 26.06 175.1C27.88 175.1 29.49 175.98 30.5 177.34C31.0138 176.646 31.683 176.082 32.454 175.693C33.225 175.304 34.0764 175.101 34.94 175.1C38.01 175.1 40.5 177.6 40.5 180.69C40.5 187.69 34.02 191.82 31.12 192.81Z" stroke="black" stroke-width="1.5" stroke-linecap="round" stroke-linejoin="round"/>
<path d="M77.032 177.832L73.912 189H71.272L69.176 181.048L66.984 189L64.36 189.016L61.352 177.832H63.752L65.72 186.504L67.992 177.832H70.488L72.632 186.456L74.616 177.832H77.032ZM79.3906 179.08C78.996 179.08 78.6653 178.957 78.3986 178.712C78.1426 178.456 78.0146 178.141 78.0146 177.768C78.0146 177.395 78.1426 177.085 78.3986 176.84C78.6653 176.584 78.996 176.456 79.3906 176.456C79.7853 176.456 80.1106 176.584 80.3666 176.84C80.6333 177.085 80.7666 177.395 80.7666 177.768C80.7666 178.141 80.6333 178.456 80.3666 178.712C80.1106 178.957 79.7853 179.08 79.3906 179.08ZM80.4946 180.136V189H78.2546V180.136H80.4946ZM85.8598 189.144C85.1344 189.144 84.4838 189.016 83.9078 188.76C83.3318 188.493 82.8731 188.136 82.5318 187.688C82.2011 187.24 82.0198 186.744 81.9878 186.2H84.2438C84.2864 186.541 84.4518 186.824 84.7398 187.048C85.0384 187.272 85.4064 187.384 85.8438 187.384C86.2704 187.384 86.6011 187.299 86.8358 187.128C87.0811 186.957 87.2038 186.739 87.2038 186.472C87.2038 186.184 87.0544 185.971 86.7558 185.832C86.4678 185.683 86.0038 185.523 85.3638 185.352C84.7024 185.192 84.1584 185.027 83.7318 184.856C83.3158 184.685 82.9531 184.424 82.6438 184.072C82.3451 183.72 82.1958 183.245 82.1958 182.648C82.1958 182.157 82.3344 181.709 82.6118 181.304C82.8998 180.899 83.3051 180.579 83.8278 180.344C84.3611 180.109 84.9851 179.992 85.6998 179.992C86.7558 179.992 87.5984 180.259 88.2278 180.792C88.8571 181.315 89.2038 182.024 89.2678 182.92H87.1238C87.0918 182.568 86.9424 182.291 86.6758 182.088C86.4198 181.875 86.0731 181.768 85.6358 181.768C85.2304 181.768 84.9158 181.843 84.6918 181.992C84.4784 182.141 84.3718 182.349 84.3718 182.616C84.3718 182.915 84.5211 183.144 84.8198 183.304C85.1184 183.453 85.5824 183.608 86.2118 183.768C86.8518 183.928 87.3798 184.093 87.7958 184.264C88.2118 184.435 88.5691 184.701 88.8678 185.064C89.1771 185.416 89.3371 185.885 89.3478 186.472C89.3478 186.984 89.2038 187.443 88.9158 187.848C88.6384 188.253 88.2331 188.573 87.6998 188.808C87.1771 189.032 86.5638 189.144 85.8598 189.144ZM95.9385 180.008C96.6105 180.008 97.2078 180.157 97.7305 180.456C98.2532 180.744 98.6585 181.176 98.9465 181.752C99.2452 182.317 99.3945 183 99.3945 183.8V189H97.1545V184.104C97.1545 183.4 96.9785 182.861 96.6265 182.488C96.2745 182.104 95.7945 181.912 95.1865 181.912C94.5678 181.912 94.0772 182.104 93.7145 182.488C93.3625 182.861 93.1865 183.4 93.1865 184.104V189H90.9465V177.16H93.1865V181.24C93.4745 180.856 93.8585 180.557 94.3385 180.344C94.8185 180.12 95.3518 180.008 95.9385 180.008ZM103.525 177.16V189H101.285V177.16H103.525ZM106.634 179.08C106.239 179.08 105.908 178.957 105.642 178.712C105.386 178.456 105.258 178.141 105.258 177.768C105.258 177.395 105.386 177.085 105.642 176.84C105.908 176.584 106.239 176.456 106.634 176.456C107.028 176.456 107.354 176.584 107.61 176.84C107.876 177.085 108.01 177.395 108.01 177.768C108.01 178.141 107.876 178.456 107.61 178.712C107.354 178.957 107.028 179.08 106.634 179.08ZM107.738 180.136V189H105.498V180.136H107.738ZM113.103 189.144C112.378 189.144 111.727 189.016 111.151 188.76C110.575 188.493 110.116 188.136 109.775 187.688C109.444 187.24 109.263 186.744 109.231 186.2H111.487C111.53 186.541 111.695 186.824 111.983 187.048C112.282 187.272 112.65 187.384 113.087 187.384C113.514 187.384 113.844 187.299 114.079 187.128C114.324 186.957 114.447 186.739 114.447 186.472C114.447 186.184 114.298 185.971 113.999 185.832C113.711 185.683 113.247 185.523 112.607 185.352C111.946 185.192 111.402 185.027 110.975 184.856C110.559 184.685 110.196 184.424 109.887 184.072C109.588 183.72 109.439 183.245 109.439 182.648C109.439 182.157 109.578 181.709 109.855 181.304C110.143 180.899 110.548 180.579 111.071 180.344C111.604 180.109 112.228 179.992 112.943 179.992C113.999 179.992 114.842 180.259 115.471 180.792C116.1 181.315 116.447 182.024 116.511 182.92H114.367C114.335 182.568 114.186 182.291 113.919 182.088C113.663 181.875 113.316 181.768 112.879 181.768C112.474 181.768 112.159 181.843 111.935 181.992C111.722 182.141 111.615 182.349 111.615 182.616C111.615 182.915 111.764 183.144 112.063 183.304C112.362 183.453 112.826 183.608 113.455 183.768C114.095 183.928 114.623 184.093 115.039 184.264C115.455 184.435 115.812 184.701 116.111 185.064C116.42 185.416 116.58 185.885 116.591 186.472C116.591 186.984 116.447 187.443 116.159 187.848C115.882 188.253 115.476 188.573 114.943 188.808C114.42 189.032 113.807 189.144 113.103 189.144ZM120.798 181.976V186.264C120.798 186.563 120.867 186.781 121.006 186.92C121.155 187.048 121.4 187.112 121.742 187.112H122.782V189H121.374C119.486 189 118.542 188.083 118.542 186.248V181.976H117.486V180.136H118.542V177.944H120.798V180.136H122.782V181.976H120.798Z" fill="#222222"/>
<rect x="10" y="224" width="41" height="40" rx="8" fill="white"/>
<path d="M35.5 242H37.5C39.5 242 40.5 241 40.5 239V237C40.5 235 39.5 234 37.5 234H35.5C33.5 234 32.5 235 32.5 237V239C32.5 241 33.5 242 35.5 242ZM23.5 254H25.5C27.5 254 28.5 253 28.5 251V249C28.5 247 27.5 246 25.5 246H23.5C21.5 246 20.5 247 20.5 249V251C20.5 253 21.5 254 23.5 254ZM24.5 242C25.5609 242 26.5783 241.579 27.3284 240.828C28.0786 240.078 28.5 239.061 28.5 238C28.5 236.939 28.0786 235.922 27.3284 235.172C26.5783 234.421 25.5609 234 24.5 234C23.4391 234 22.4217 234.421 21.6716 235.172C20.9214 235.922 20.5 236.939 20.5 238C20.5 239.061 20.9214 240.078 21.6716 240.828C22.4217 241.579 23.4391 242 24.5 242V242ZM36.5 254C37.5609 254 38.5783 253.579 39.3284 252.828C40.0786 252.078 40.5 251.061 40.5 250C40.5 248.939 40.0786 247.922 39.3284 247.172C38.5783 246.421 37.5609 246 36.5 246C35.4391 246 34.4217 246.421 33.6716 247.172C32.9214 247.922 32.5 248.939 32.5 250C32.5 251.061 32.9214 252.078 33.6716 252.828C34.4217 253.579 35.4391 254 36.5 254Z" stroke="black" stroke-width="1.5" stroke-miterlimit="10" stroke-linecap="round" stroke-linejoin="round"/>
<path d="M69.88 242.192C69.624 241.723 69.272 241.365 68.824 241.12C68.376 240.875 67.8533 240.752 67.256 240.752C66.5947 240.752 66.008 240.901 65.496 241.2C64.984 241.499 64.584 241.925 64.296 242.48C64.008 243.035 63.864 243.675 63.864 244.4C63.864 245.147 64.008 245.797 64.296 246.352C64.5947 246.907 65.0053 247.333 65.528 247.632C66.0507 247.931 66.6587 248.08 67.352 248.08C68.2053 248.08 68.904 247.856 69.448 247.408C69.992 246.949 70.3493 246.315 70.52 245.504H66.68V243.792H72.728V245.744C72.5787 246.523 72.2587 247.243 71.768 247.904C71.2773 248.565 70.6427 249.099 69.864 249.504C69.096 249.899 68.232 250.096 67.272 250.096C66.1947 250.096 65.2187 249.856 64.344 249.376C63.48 248.885 62.7973 248.208 62.296 247.344C61.8053 246.48 61.56 245.499 61.56 244.4C61.56 243.301 61.8053 242.32 62.296 241.456C62.7973 240.581 63.48 239.904 64.344 239.424C65.2187 238.933 66.1893 238.688 67.256 238.688C68.5147 238.688 69.608 238.997 70.536 239.616C71.464 240.224 72.104 241.083 72.456 242.192H69.88ZM76.3853 242.512C76.6733 242.043 77.0466 241.675 77.5053 241.408C77.9746 241.141 78.5079 241.008 79.1053 241.008V243.36H78.5133C77.8093 243.36 77.2759 243.525 76.9133 243.856C76.5613 244.187 76.3853 244.763 76.3853 245.584V250H74.1453V241.136H76.3853V242.512ZM84.31 250.144C83.4567 250.144 82.6887 249.957 82.006 249.584C81.3233 249.2 80.7847 248.661 80.39 247.968C80.006 247.275 79.814 246.475 79.814 245.568C79.814 244.661 80.0113 243.861 80.406 243.168C80.8113 242.475 81.3607 241.941 82.054 241.568C82.7473 241.184 83.5207 240.992 84.374 240.992C85.2273 240.992 86.0007 241.184 86.694 241.568C87.3873 241.941 87.9313 242.475 88.326 243.168C88.7313 243.861 88.934 244.661 88.934 245.568C88.934 246.475 88.726 247.275 88.31 247.968C87.9047 248.661 87.35 249.2 86.646 249.584C85.9527 249.957 85.174 250.144 84.31 250.144ZM84.31 248.192C84.7153 248.192 85.094 248.096 85.446 247.904C85.8087 247.701 86.0967 247.403 86.31 247.008C86.5233 246.613 86.63 246.133 86.63 245.568C86.63 244.725 86.406 244.08 85.958 243.632C85.5207 243.173 84.982 242.944 84.342 242.944C83.702 242.944 83.1633 243.173 82.726 243.632C82.2993 244.08 82.086 244.725 82.086 245.568C82.086 246.411 82.294 247.061 82.71 247.52C83.1367 247.968 83.67 248.192 84.31 248.192ZM98.7051 241.136V250H96.4491V248.88C96.1611 249.264 95.7825 249.568 95.3131 249.792C94.8545 250.005 94.3531 250.112 93.8091 250.112C93.1158 250.112 92.5025 249.968 91.9691 249.68C91.4358 249.381 91.0145 248.949 90.7051 248.384C90.4065 247.808 90.2571 247.125 90.2571 246.336V241.136H92.4971V246.016C92.4971 246.72 92.6731 247.264 93.0251 247.648C93.3771 248.021 93.8571 248.208 94.4651 248.208C95.0838 248.208 95.5691 248.021 95.9211 247.648C96.2731 247.264 96.4491 246.72 96.4491 246.016V241.136H98.7051ZM102.915 242.416C103.203 242.011 103.598 241.675 104.099 241.408C104.611 241.131 105.193 240.992 105.843 240.992C106.601 240.992 107.283 241.179 107.891 241.552C108.51 241.925 108.995 242.459 109.347 243.152C109.71 243.835 109.891 244.629 109.891 245.536C109.891 246.443 109.71 247.248 109.347 247.952C108.995 248.645 108.51 249.184 107.891 249.568C107.283 249.952 106.601 250.144 105.843 250.144C105.193 250.144 104.617 250.011 104.115 249.744C103.625 249.477 103.225 249.141 102.915 248.736V254.224H100.675V241.136H102.915V242.416ZM107.603 245.536C107.603 245.003 107.491 244.544 107.267 244.16C107.054 243.765 106.766 243.467 106.403 243.264C106.051 243.061 105.667 242.96 105.251 242.96C104.846 242.96 104.462 243.067 104.099 243.28C103.747 243.483 103.459 243.781 103.235 244.176C103.022 244.571 102.915 245.035 102.915 245.568C102.915 246.101 103.022 246.565 103.235 246.96C103.459 247.355 103.747 247.659 104.099 247.872C104.462 248.075 104.846 248.176 105.251 248.176C105.667 248.176 106.051 248.069 106.403 247.856C106.766 247.643 107.054 247.339 107.267 246.944C107.491 246.549 107.603 246.08 107.603 245.536ZM114.671 250.144C113.946 250.144 113.295 250.016 112.719 249.76C112.143 249.493 111.684 249.136 111.343 248.688C111.012 248.24 110.831 247.744 110.799 247.2H113.055C113.098 247.541 113.263 247.824 113.551 248.048C113.85 248.272 114.218 248.384 114.655 248.384C115.082 248.384 115.412 248.299 115.647 248.128C115.892 247.957 116.015 247.739 116.015 247.472C116.015 247.184 115.866 246.971 115.567 246.832C115.279 246.683 114.815 246.523 114.175 246.352C113.514 246.192 112.97 246.027 112.543 245.856C112.127 245.685 111.764 245.424 111.455 245.072C111.156 244.72 111.007 244.245 111.007 243.648C111.007 243.157 111.146 242.709 111.423 242.304C111.711 241.899 112.116 241.579 112.639 241.344C113.172 241.109 113.796 240.992 114.511 240.992C115.567 240.992 116.41 241.259 117.039 241.792C117.668 242.315 118.015 243.024 118.079 243.92H115.935C115.903 243.568 115.754 243.291 115.487 243.088C115.231 242.875 114.884 242.768 114.447 242.768C114.042 242.768 113.727 242.843 113.503 242.992C113.29 243.141 113.183 243.349 113.183 243.616C113.183 243.915 113.332 244.144 113.631 244.304C113.93 244.453 114.394 244.608 115.023 244.768C115.663 244.928 116.191 245.093 116.607 245.264C117.023 245.435 117.38 245.701 117.679 246.064C117.988 246.416 118.148 246.885 118.159 247.472C118.159 247.984 118.015 248.443 117.727 248.848C117.45 249.253 117.044 249.573 116.511 249.808C115.988 250.032 115.375 250.144 114.671 250.144Z" fill="#222222"/>
<rect x="10" y="284" width="41" height="40" rx="8" fill="white"/>
<path d="M26.5 304H34.5M30.5 308V300M30.5 314C36 314 40.5 309.5 40.5 304C40.5 298.5 36 294 30.5 294C25 294 20.5 298.5 20.5 304C20.5 309.5 25 314 30.5 314Z" stroke="black" stroke-width="1.5" stroke-linecap="round" stroke-linejoin="round"/>
<path d="M68.952 308.872H64.504L63.768 311H61.416L65.432 299.816H68.04L72.056 311H69.688L68.952 308.872ZM68.344 307.08L66.728 302.408L65.112 307.08H68.344ZM72.7411 306.536C72.7411 305.64 72.9171 304.845 73.2691 304.152C73.6318 303.459 74.1225 302.925 74.7411 302.552C75.3598 302.179 76.0478 301.992 76.8051 301.992C77.3811 301.992 77.9305 302.12 78.4531 302.376C78.9758 302.621 79.3918 302.952 79.7011 303.368V299.16H81.9731V311H79.7011V309.688C79.4238 310.125 79.0345 310.477 78.5331 310.744C78.0318 311.011 77.4505 311.144 76.7891 311.144C76.0425 311.144 75.3598 310.952 74.7411 310.568C74.1225 310.184 73.6318 309.645 73.2691 308.952C72.9171 308.248 72.7411 307.443 72.7411 306.536ZM79.7171 306.568C79.7171 306.024 79.6105 305.56 79.3971 305.176C79.1838 304.781 78.8958 304.483 78.5331 304.28C78.1705 304.067 77.7811 303.96 77.3651 303.96C76.9491 303.96 76.5651 304.061 76.2131 304.264C75.8611 304.467 75.5731 304.765 75.3491 305.16C75.1358 305.544 75.0291 306.003 75.0291 306.536C75.0291 307.069 75.1358 307.539 75.3491 307.944C75.5731 308.339 75.8611 308.643 76.2131 308.856C76.5758 309.069 76.9598 309.176 77.3651 309.176C77.7811 309.176 78.1705 309.075 78.5331 308.872C78.8958 308.659 79.1838 308.36 79.3971 307.976C79.6105 307.581 79.7171 307.112 79.7171 306.568ZM83.3449 306.536C83.3449 305.64 83.5209 304.845 83.8729 304.152C84.2355 303.459 84.7262 302.925 85.3449 302.552C85.9635 302.179 86.6515 301.992 87.4089 301.992C87.9849 301.992 88.5342 302.12 89.0569 302.376C89.5795 302.621 89.9955 302.952 90.3049 303.368V299.16H92.5769V311H90.3049V309.688C90.0275 310.125 89.6382 310.477 89.1369 310.744C88.6355 311.011 88.0542 311.144 87.3929 311.144C86.6462 311.144 85.9635 310.952 85.3449 310.568C84.7262 310.184 84.2355 309.645 83.8729 308.952C83.5209 308.248 83.3449 307.443 83.3449 306.536ZM90.3209 306.568C90.3209 306.024 90.2142 305.56 90.0009 305.176C89.7875 304.781 89.4995 304.483 89.1369 304.28C88.7742 304.067 88.3849 303.96 87.9689 303.96C87.5529 303.96 87.1689 304.061 86.8169 304.264C86.4649 304.467 86.1769 304.765 85.9529 305.16C85.7395 305.544 85.6329 306.003 85.6329 306.536C85.6329 307.069 85.7395 307.539 85.9529 307.944C86.1769 308.339 86.4649 308.643 86.8169 308.856C87.1795 309.069 87.5635 309.176 87.9689 309.176C88.3849 309.176 88.7742 309.075 89.1369 308.872C89.4995 308.659 89.7875 308.36 90.0009 307.976C90.2142 307.581 90.3209 307.112 90.3209 306.568ZM95.5166 311.112C95.1113 311.112 94.7753 310.989 94.5086 310.744C94.2526 310.488 94.1246 310.173 94.1246 309.8C94.1246 309.427 94.2526 309.117 94.5086 308.872C94.7753 308.616 95.1113 308.488 95.5166 308.488C95.9113 308.488 96.2366 308.616 96.4926 308.872C96.7486 309.117 96.8766 309.427 96.8766 309.8C96.8766 310.173 96.7486 310.488 96.4926 310.744C96.2366 310.989 95.9113 311.112 95.5166 311.112ZM99.4329 311.112C99.0275 311.112 98.6915 310.989 98.4249 310.744C98.1689 310.488 98.0409 310.173 98.0409 309.8C98.0409 309.427 98.1689 309.117 98.4249 308.872C98.6915 308.616 99.0275 308.488 99.4329 308.488C99.8275 308.488 100.153 308.616 100.409 308.872C100.665 309.117 100.793 309.427 100.793 309.8C100.793 310.173 100.665 310.488 100.409 310.744C100.153 310.989 99.8275 311.112 99.4329 311.112ZM103.349 311.112C102.944 311.112 102.608 310.989 102.341 310.744C102.085 310.488 101.957 310.173 101.957 309.8C101.957 309.427 102.085 309.117 102.341 308.872C102.608 308.616 102.944 308.488 103.349 308.488C103.744 308.488 104.069 308.616 104.325 308.872C104.581 309.117 104.709 309.427 104.709 309.8C104.709 310.173 104.581 310.488 104.325 310.744C104.069 310.989 103.744 311.112 103.349 311.112Z" fill="#222222"/>
<rect x="10" y="26" width="41" height="40" rx="9" fill="#252525"/>
<rect x="18" y="34" width="25" height="24" rx="12" fill="white"/>
<g clip-path="url(#clip0_11_828)">
<path d="M34.9551 51L33.4401 49.485M32.6451 42.07L32.6101 43.965C32.6051 44.225 32.7701 44.57 32.9801 44.725L34.2201 45.665C35.0151 46.265 34.8851 47 33.9351 47.3L32.3201 47.805C32.0501 47.89 31.7651 48.185 31.6951 48.46L31.3101 49.93C31.0051 51.09 30.2451 51.205 29.6151 50.185L28.7351 48.76C28.5751 48.5 28.1951 48.305 27.8951 48.32L26.2251 48.405C25.0301 48.465 24.6901 47.775 25.4701 46.865L26.4601 45.715C26.6451 45.5 26.7301 45.1 26.6451 44.83L26.1401 43.215C25.8451 42.265 26.3751 41.74 27.3201 42.05L28.7951 42.535C29.0451 42.615 29.4201 42.56 29.6301 42.405L31.1701 41.295C32.0001 40.695 32.6651 41.045 32.6451 42.07Z" stroke="black" stroke-width="1.5" stroke-linecap="round" stroke-linejoin="round"/>
</g>
<defs>
<clipPath id="clip0_11_828">
<rect width="12" height="12" fill="white" transform="translate(24 40)"/>
</clipPath>
</defs>
</svg>
