                    <svg id="darkBtn" width="24" height="24" viewBox="0 0 24 24" fill="none" xmlns="http://www.w3.org/2000/svg">
                      <path d="M9.5 2C10.8833 2 12.1833 2.26233 13.4 2.787C14.6167 3.31233 15.675 4.025 16.575 4.925C17.475 5.825 18.1873 6.88333 18.712 8.1C19.2373 9.31667 19.5 10.6167 19.5 12C19.5 13.3833 19.2373 14.6833 18.712 15.9C18.1873 17.1167 17.475 18.175 16.575 19.075C15.675 19.975 14.6167 20.6873 13.4 21.212C12.1833 21.7373 10.8833 22 9.5 22C8.61667 22 7.75433 21.8877 6.913 21.663C6.071 21.4377 5.26667 21.1 4.5 20.65C6.05 19.75 7.27067 18.5333 8.162 17C9.054 15.4667 9.5 13.8 9.5 12C9.5 10.2 9.054 8.53333 8.162 7C7.27067 5.46667 6.05 4.25 4.5 3.35C5.26667 2.9 6.071 2.56233 6.913 2.337C7.75433 2.11233 8.61667 2 9.5 2Z" fill="white"/>
                    </svg>  