<svg width="41" height="40" viewBox="0 0 41 40" fill="none" xmlns="http://www.w3.org/2000/svg">
<rect width="41" height="40" rx="9" fill="#252525"/>
<rect x="8" y="8" width="25" height="24" rx="12" fill="white"/>
<g clip-path="url(#clip0_17_2121)">
<path d="M24.9549 25L23.4399 23.485M22.6449 16.07L22.6099 17.965C22.6049 18.225 22.7699 18.57 22.9799 18.725L24.2199 19.665C25.0149 20.265 24.8849 21 23.9349 21.3L22.3199 21.805C22.0499 21.89 21.7649 22.185 21.6949 22.46L21.3099 23.93C21.0049 25.09 20.2449 25.205 19.6149 24.185L18.7349 22.76C18.5749 22.5 18.1949 22.305 17.8949 22.32L16.2249 22.405C15.0299 22.465 14.6899 21.775 15.4699 20.865L16.4599 19.715C16.6449 19.5 16.7299 19.1 16.6449 18.83L16.1399 17.215C15.8449 16.265 16.3749 15.74 17.3199 16.05L18.7949 16.535C19.0449 16.615 19.4199 16.56 19.6299 16.405L21.1699 15.295C21.9999 14.695 22.6649 15.045 22.6449 16.07Z" stroke="black" stroke-width="1.5" stroke-linecap="round" stroke-linejoin="round"/>
</g>
<defs>
<clipPath id="clip0_17_2121">
<rect width="12" height="12" fill="white" transform="translate(14 14)"/>
</clipPath>
</defs>
</svg>
